<?xml version="1.0" encoding="UTF-8" standalone="no"?>
<svg
   viewBox="0 0 912.87669 312.88525"
   version="1.1"
   id="svg276"
   sodipodi:docname="Pyroll.svg"
   width="912.87665"
   height="312.88525"
   inkscape:version="1.1.2 (0a00cf5339, 2022-02-04, custom)"
   xmlns:inkscape="http://www.inkscape.org/namespaces/inkscape"
   xmlns:sodipodi="http://sodipodi.sourceforge.net/DTD/sodipodi-0.dtd"
   xmlns="http://www.w3.org/2000/svg"
   xmlns:svg="http://www.w3.org/2000/svg">
  <sodipodi:namedview
     id="namedview278"
     pagecolor="#ffffff"
     bordercolor="#666666"
     borderopacity="1.0"
     inkscape:pageshadow="2"
     inkscape:pageopacity="0.0"
     inkscape:pagecheckerboard="0"
     showgrid="false"
     fit-margin-top="0"
     fit-margin-left="0"
     fit-margin-right="0"
     fit-margin-bottom="0"
     inkscape:zoom="0.8203125"
     inkscape:cx="492.49524"
     inkscape:cy="154.20952"
     inkscape:window-width="3840"
     inkscape:window-height="2091"
     inkscape:window-x="0"
     inkscape:window-y="0"
     inkscape:window-maximized="1"
     inkscape:current-layer="svg276" />
  <defs
     id="defs4">
    <style
       id="style2">
      .a {
        stroke: #000;
        stroke-width: 3.57px;
      }

      .a, .d {
        stroke-miterlimit: 10;
      }

      .b {
        fill: #303030;
      }

      .c {
        fill: #fd0;
      }

      .d, .k {
        fill: #fff;
      }

      .d {
        stroke: #fd0;
        stroke-width: 0.39px;
      }

      .e {
        fill: #cfba00;
      }

      .f {
        fill: #ffe600;
      }

      .g {
        fill: #4f4f4e;
      }

      .h {
        fill: #d4691e;
      }

      .i {
        fill: #d4851e;
      }

      .j {
        fill: #bd7100;
      }
    </style>
  </defs>
  <g
     id="g274"
     transform="translate(-93.73,-229.25474)">
    <g
       id="g14">
      <path
         d="M 93.73,481.07 V 233.38 h 68.16 q 29.94,0 47.83,19.17 17.89,19.17 17.88,51.45 0,31.91 -17.88,51.24 -17.88,19.33 -47.83,19.34 h -48 v 106.49 z m 20.17,-126.9 h 48 q 20.48,0 32.85,-13.57 12.37,-13.57 12.37,-36.6 0,-23.07 -12.22,-36.64 -12.22,-13.57 -33,-13.57 h -48 z"
         id="path6" />
      <path
         d="m 278.64,542.14 24.76,-73.63 -63,-174.06 h 22 l 41.6,117.4 q 2.75,8.14 5.5,17 2.75,8.86 4.28,13.92 1.53,-5.1 4.28,-14.09 2.75,-8.99 5.5,-17.13 l 38.51,-117.06 h 21.4 l -84.05,247.65 z"
         id="path8" />
      <path
         d="M 409.76,481.07 V 233.38 h 65.11 q 29.64,0 47.37,19 17.73,19 17.76,50.55 0,26.47 -12.84,44.28 -12.84,17.81 -35.16,22.91 l 50.13,111 H 518.27 L 470.89,371.81 h -41 v 109.26 z m 20.17,-129.28 h 44.94 q 20.16,0 32.39,-13.4 12.23,-13.4 12.23,-35.8 0,-22.38 -12.23,-35.62 -12.23,-13.24 -32.39,-13.23 h -44.94 z"
         id="path10" />
      <path
         d="m 628,484.12 q -28.43,0 -45.23,-18.66 Q 565.97,446.8 566,414.9 v -54.28 q 0,-31.89 16.81,-50.56 16.81,-18.67 45.19,-18.66 28.43,0 45.24,18.66 16.81,18.66 16.76,50.22 v 54.62 q 0,31.91 -16.81,50.56 -16.81,18.65 -45.19,18.66 z m 0,-19.68 q 19.88,0 30.87,-12.89 10.99,-12.89 11,-36.65 v -54.28 q 0,-23.75 -11.16,-36.65 -11.16,-12.9 -30.71,-12.89 -19.56,0 -30.71,12.89 -11.15,12.89 -11.16,36.65 v 54.28 q 0,23.76 11,36.65 11,12.89 30.87,12.89 z"
         id="path12" />
    </g>
    <path
       d="M 723.1,480.45 V 232.76 h 20.18 v 227.33 h 42.65 v 20.36 z"
       id="path16" />
    <path
       class="a"
       d="m 822.55,466.76 c -11.4,-1.43 -16.08,-6.25 -16,-16.63 0.13,-53.71 0.59,-107.42 0.47,-161.14 0,-12.22 6.11,-20 17.22,-25.37 3.2,-1.56 6.68,-2.74 9.62,-4.62 9.13,-5.82 10.27,-17.05 1.68,-22.91 -9.52,-6.5 -20.81,-5.91 -31.34,-2.83 -9.21,2.7 -9.63,10.53 -9.63,18.17 -0.06,51.39 -0.8,102.79 -0.13,154.17 0.28,21.57 0.25,43.11 -0.39,64.65 -0.17,5.93 1.44,9.69 8.78,9.86 35.31,0.85 153.27,-1.24 187.64,-0.13 6,0.2 14.09,1.37 14.35,-6.87 0.17,-5.27 -8.72,-3.13 -14,-3.3 -23.51,-0.76 -163.24,-2.42 -168.27,-3.05 z"
       id="path18" />
    <g
       id="g272">
      <path
         class="b"
         d="m 902.07,461 c 0,-0.55 0,-1.1 0,-1.67 a 11.57,11.57 0 0 1 6.1,-2.43 c 0.21,1.12 0.41,2.2 0.6,3.23 a 0.73,0.73 0 1 0 1.45,-0.15 c 0,-1 0,-2.05 0,-3.14 8.91,0.23 11.46,9.34 11.46,9.34 H 911.46 A 11.5,11.5 0 0 0 902.07,461 Z"
         id="path20" />
      <path
         class="b"
         d="m 908.15,456.91 c -1.08,-5.83 -2.35,-12.68 -3.24,-17.42 1.73,-0.84 3.46,-1.71 5.21,-2.62 0,4.74 0,13.08 0.06,20 -0.24,0 -0.46,0 -0.71,0 -0.47,-0.04 -0.89,0 -1.32,0.04 z"
         id="path22" />
      <path
         class="b"
         d="m 908.75,460.14 c -0.19,-1 -0.39,-2.11 -0.6,-3.23 0.43,0 0.86,-0.08 1.32,-0.08 0.25,0 0.47,0 0.71,0 0,1.09 0,2.14 0,3.14 a 0.73,0.73 0 1 1 -1.43,0.17 z"
         id="path24" />
      <path
         class="c"
         d="m 895.6,434.3 v 0 l -1.67,-2.1 v 0 L 892,429.76 c 9.35,-9 20.31,-20.09 29.38,-30.68 a 89.68,89.68 0 0 0 10,23.9 c 0,0 25,-15 36.49,-39.74 C 983.24,350 960,325.43 960,325.43 a 105.33,105.33 0 0 0 -13.61,9.8 c -2.15,-12.44 -9.57,-20.87 -18.61,-24.41 -4.56,-1.79 -9.74,-1.37 -15.06,0.88 -0.27,0.08 -0.53,0.14 -0.81,0.24 a 37.63,37.63 0 0 0 -4.4,2 c 0.31,-1.69 0.59,-3.31 0.84,-4.85 1,-6.31 0.83,-14.83 2.18,-27.6 2.25,-21.19 10.58,-34.28 17.79,-37.34 19.55,-8.27 41.15,-4 48.33,16.55 a 33.52,33.52 0 0 1 1.23,17.54 h -0.06 c -3.13,5 -7.74,9.48 -13.54,11.18 3.93,4.08 2.64,2.72 3.21,8.09 h 0.21 a 41.58,41.58 0 0 1 -15.6,10.19 c 0,0 2.12,8.42 3.62,10.29 44.37,55 -2.64,96.66 -45.6,119 0,-0.42 0,-0.82 0,-1.18 -0.49,-2.6 -5.79,-2.13 -5.82,0.57 0.17,0.9 0.37,2 0.6,3.23 -1,0.48 -1.94,0.94 -2.91,1.4 0,-0.37 0,-0.72 0,-1 -0.48,-2.61 -5.79,-2.13 -5.81,0.57 0.15,0.8 0.33,1.79 0.53,2.88 -6.73,3 -13.09,5.42 -18.64,7.3 l 18.21,-15.42 z m 67,-155 9.69,-4.67 a 1.51,1.51 0 0 0 0.39,-2.43 l -8.3,-8.07 A 13.57,13.57 0 0 0 945,261.77 l -10.77,6.94 9,8.23 a 13.57,13.57 0 0 0 19.37,2.38 z"
         id="path26" />
      <path
         class="c"
         d="m 904.31,436.26 c 0,-2.7 5.33,-3.17 5.82,-0.57 0,0.36 0,0.76 0,1.18 -1.75,0.91 -3.48,1.78 -5.21,2.62 -0.24,-1.23 -0.44,-2.33 -0.61,-3.23 z"
         id="path28" />
      <path
         class="d"
         d="m 946.39,335.23 a 105.33,105.33 0 0 1 13.61,-9.8 c 0,0 23.24,24.58 7.89,57.81 C 956.43,408 931.4,423 931.4,423 a 89.68,89.68 0 0 1 -10,-23.9 c 6.1,-7.12 11.35,-14 14.65,-19.9 9.83,-17.64 12.33,-32.51 10.34,-43.97 z"
         id="path30" />
      <path
         d="m 844.87,471 v 0 l 25.38,-18.35 -0.14,0.44 c 2.4,-0.67 5.08,-1.5 8,-2.48 l -13.18,11.17 -2.23,-3.6 z"
         id="path32" />
      <path
         d="m 871.29,447.5 -28.29,19.11 1.87,4.38 -3.77,-8.16 29.9,-19.09 c 0.1,1.63 0.21,2.9 0.29,3.76 z"
         id="path34" />
      <path
         d="m 870.57,439.51 -31.57,18.84 -1.23,-2.64 32.47,-19.17 c 0.14,1.2 0.24,2.18 0.33,2.97 z"
         id="path36" />
      <path
         d="m 836.1,452 -0.69,-1.49 34.14,-20 c 0.16,1.07 0.29,1.8 0.37,2.2 z"
         id="path38" />
      <path
         d="m 890.24,431.43 2,-1.3 -0.29,-0.37 v 0 l 1.95,2.44 -16.25,11 c 3.35,-3.03 7.69,-7.08 12.59,-11.77 z"
         id="path40" />
      <path
         d="m 870.25,452.64 25.35,-18.34 0.7,0.88 -18.21,15.42 c -2.9,1 -5.58,1.81 -8,2.48 z"
         id="path42" />
      <rect
         class="b"
         x="894.76001"
         y="431.91"
         height="2.6800001"
         transform="rotate(-38.59,894.85506,433.25537)"
         id="rect44"
         width="0" />
      <path
         class="b"
         d="m 871.29,447.5 c 0.08,0.84 0.13,1.31 0.13,1.31 v 0 l -1.17,3.83 -25.38,18.36 v 0 L 843,466.61 Z"
         id="path46" />
      <path
         class="b"
         d="m 893.93,432.2 1.67,2.1 -25.35,18.34 1.17,-3.83 c 0,0 2.38,-2.09 6.26,-5.63 z"
         id="path48" />
      <rect
         class="b"
         x="840.06"
         y="458.13"
         height="4.9400001"
         transform="rotate(-24.83,840.14462,460.61511)"
         id="rect50"
         width="0" />
      <path
         class="b"
         d="m 870.83,441.63 v 0 c 0,0.77 0.1,1.46 0.15,2.11 l -29.88,19.09 -2.1,-4.48 31.54,-18.84 c 0.18,1.37 0.29,2.12 0.29,2.12 z"
         id="path52" />
      <path
         class="b"
         d="m 892.27,430.13 -2,1.3 1.74,-1.67 z"
         id="path54" />
      <rect
         class="b"
         x="836.95001"
         y="451.84"
         height="4.0599999"
         id="rect56"
         width="0" />
      <path
         class="b"
         d="m 869.92,432.75 0.08,0.38 v 0 c 0.09,1.26 0.18,2.41 0.27,3.41 L 837.8,455.71 836.1,452 Z"
         id="path58" />
      <polygon
         class="e"
         points="864.91,461.77 847.45,476.56 "
         id="polygon60" />
      <polygon
         class="e"
         points="844.87,470.99 862.67,458.17 864.91,461.77 847.45,476.56 859.91,466 857.38,461.99 844.87,470.99 "
         id="polygon62" />
      <polygon
         class="f"
         points="844.87,470.99 847.45,476.56 844.87,470.99 "
         id="polygon64" />
      <polygon
         class="f"
         points="847.45,476.56 844.87,470.99 857.38,461.99 859.91,466 "
         id="polygon66" />
      <path
         class="g"
         d="m 880.9,349.85 q -2.05,5.44 -4,11.95 a 108,108 0 0 1 4,-11.95 z"
         id="path68" />
      <path
         class="g"
         d="m 937.63,343.43 c 1.3,-20.28 -7.32,-34.42 -19.41,-32.73 -0.87,0.12 -1.74,0.3 -2.62,0.51 a 11.15,11.15 0 0 0 -2.88,0.49 c 5.32,-2.25 10.5,-2.67 15.06,-0.88 9,3.54 16.46,12 18.61,24.41 a 106.14,106.14 0 0 0 -8.76,8.2 z"
         id="path70" />
      <path
         class="g"
         d="m 890.34,427.71 v 0 L 888.2,425 c 10.1,-10.09 22.53,-23.33 31.42,-35.52 a 70.17,70.17 0 0 0 1.74,9.57 c -9.07,10.59 -20,21.67 -29.38,30.68 l -1.56,-1.95 z"
         id="path72" />
      <path
         class="g"
         d="m 926.45,379.06 c 7.08,-12.64 10.5,-25 11.18,-35.63 a 106.14,106.14 0 0 1 8.76,-8.2 c 2,11.46 -0.51,26.33 -10.38,43.95 -3.3,5.88 -8.55,12.78 -14.65,19.9 a 70.17,70.17 0 0 1 -1.74,-9.57 105,105 0 0 0 6.83,-10.45 z"
         id="path74" />
      <path
         class="g"
         d="m 872,447 -0.67,0.46 c -0.08,-0.86 -0.19,-2.13 -0.31,-3.76 l 2.45,-1.57 c -0.59,1.87 -1.08,3.51 -1.47,4.87 z"
         id="path76" />
      <path
         class="g"
         d="M 877.68,443.18 872,447 c 0.43,-1.4 0.92,-3 1.47,-4.87 l 16.81,-10.74 c -4.94,4.73 -9.28,8.78 -12.6,11.79 z"
         id="path78" />
      <path
         class="g"
         d="m 885.91,427.31 2.79,-1.65 -0.5,-0.63 v 0 l 2.14,2.68 -12.65,7.55 c 2.31,-2.2 5.14,-4.91 8.22,-7.95 z"
         id="path80" />
      <polygon
         class="g"
         points="891.98,429.76 890.42,427.81 891.98,429.76 "
         id="polygon82" />
      <path
         class="g"
         d="m 871.42,448.81 v 0 c 0,0 0,-0.47 -0.13,-1.31 L 872,447 q -0.34,1 -0.58,1.81 z"
         id="path84" />
      <path
         class="g"
         d="m 877.68,443.18 c -3.88,3.54 -6.26,5.63 -6.26,5.63 q 0.24,-0.81 0.54,-1.77 z"
         id="path86" />
      <polygon
         class="g"
         points="890.34,427.71 890.42,427.81 "
         id="polygon88" />
      <path
         class="g"
         d="m 873.43,442.17 -2.43,1.57 c -0.05,-0.65 -0.1,-1.34 -0.15,-2.11 0,0 1.42,-1.28 3.82,-3.51 -0.45,1.44 -0.86,2.79 -1.24,4.05 z"
         id="path90" />
      <path
         class="g"
         d="m 890.34,427.71 0.08,0.1 1.56,1.95 -1.74,1.67 -16.81,10.74 c 0.38,-1.26 0.79,-2.61 1.22,-4.05 l 3,-2.86 z"
         id="path92" />
      <path
         class="g"
         d="m 888.7,425.66 -2.79,1.65 2.29,-2.31 z"
         id="path94" />
      <path
         class="b"
         d="m 870.7,439.44 -0.13,0.07 c -0.09,-0.79 -0.19,-1.77 -0.3,-3 l 0.27,-0.16 c 0.05,1.11 0.11,2.13 0.16,3.09 z"
         id="path96" />
      <path
         class="b"
         d="m 870.83,441.63 v 0 c 0,0 -0.11,-0.75 -0.26,-2.12 l 0.13,-0.07 c 0.04,0.77 0.09,1.56 0.13,2.19 z"
         id="path98" />
      <path
         class="b"
         d="m 870.54,436.38 -0.27,0.16 c -0.09,-1 -0.18,-2.15 -0.27,-3.41 l 0.4,-0.37 c 0.04,1.24 0.09,2.48 0.14,3.62 z"
         id="path100" />
      <path
         class="b"
         d="m 878.46,425.34 -0.82,0.47 1,-0.94 z"
         id="path102" />
      <path
         class="b"
         d="m 878.46,425.34 0.13,-0.47 c 10.83,-10.75 29.18,-30.2 38.83,-47.41 q 2,-3.52 3.59,-7 a 50,50 0 0 0 -1.39,19.06 C 910.73,401.7 898.3,414.94 888.2,425 l -2.94,-3.68 z"
         id="path104" />
      <path
         class="b"
         d="m 915.6,311.21 c 0.88,-0.21 1.75,-0.39 2.62,-0.51 12.09,-1.69 20.71,12.45 19.41,32.73 A 77.63,77.63 0 0 0 924.84,361 c 9.46,-27.41 3.23,-50.21 -9.24,-49.79 z"
         id="path106" />
      <path
         class="b"
         d="m 921,370.45 a 96.83,96.83 0 0 0 3.83,-9.47 77.63,77.63 0 0 1 12.79,-17.55 c -0.68,10.65 -4.1,23 -11.18,35.63 a 105,105 0 0 1 -6.83,10.45 50,50 0 0 1 1.39,-19.06 z"
         id="path108" />
      <path
         class="b"
         d="m 877.55,428.41 -6.38,3.64 c 1.28,-1.2 3.55,-3.35 6.47,-6.24 l 0.82,-0.47 c -0.31,1.04 -0.62,2.07 -0.91,3.07 z"
         id="path110" />
      <path
         class="b"
         d="m 875,436.85 -4.33,2.59 c -0.05,-1 -0.11,-2 -0.16,-3.06 l 5.62,-3.32 c -0.36,1.32 -0.74,2.58 -1.13,3.79 z"
         id="path112" />
      <path
         class="b"
         d="m 885.91,427.31 c -3.08,3 -5.89,5.75 -8.22,7.95 l -2.69,1.59 c 0.36,-1.21 0.74,-2.47 1.13,-3.79 z"
         id="path114" />
      <path
         class="b"
         d="m 886.73,423.18 -9.18,5.23 c 0.29,-1 0.6,-2 0.91,-3.07 l 6.8,-4 2.94,3.66 v 0 z"
         id="path116" />
      <path
         class="b"
         d="m 875,436.85 c -0.13,0.43 -0.25,0.85 -0.38,1.27 -2.4,2.23 -3.82,3.51 -3.82,3.51 0,-0.68 -0.09,-1.42 -0.13,-2.19 z"
         id="path118" />
      <path
         class="b"
         d="m 874.65,438.12 c 0.13,-0.42 0.25,-0.84 0.38,-1.27 l 2.66,-1.59 z"
         id="path120" />
      <path
         class="b"
         d="m 877.55,428.41 q -0.72,2.41 -1.39,4.65 l -5.62,3.32 c 0,-1.14 -0.1,-2.35 -0.14,-3.62 l 0.77,-0.71 z"
         id="path122" />
      <path
         class="b"
         d="m 888.2,425 -2.29,2.28 -9.75,5.75 q 0.68,-2.24 1.39,-4.65 l 9.18,-5.23 z"
         id="path124" />
      <path
         d="m 902,317.41 a 37.64,37.64 0 0 1 5.52,-3.5 v 0.17 a 31,31 0 0 0 -5.52,3.33 z"
         id="path126" />
      <path
         d="m 898.27,320.59 c -0.36,0.35 -0.72,0.71 -1.08,1.09 0.36,-0.37 0.72,-0.74 1.08,-1.09 z"
         id="path128" />
      <path
         d="m 901.15,318.06 c -0.45,0.36 -0.9,0.73 -1.36,1.13 0.45,-0.39 0.9,-0.77 1.36,-1.13 z"
         id="path130" />
      <path
         d="m 895.86,323.13 c -0.4,0.44 -0.79,0.9 -1.19,1.38 0.39,-0.51 0.79,-0.93 1.19,-1.38 z"
         id="path132" />
      <path
         d="m 893.1,326.5 -0.56,0.76 z"
         id="path134" />
      <path
         d="m 869.83,430.39 -0.28,0.16 c -0.12,-0.81 -0.25,-1.81 -0.37,-3 l 0.49,-0.5 c 0.05,1.17 0.1,2.29 0.16,3.34 z"
         id="path136" />
      <path
         d="m 912.72,311.7 a 31.27,31.27 0 0 0 -3.05,1.46 v 0 c -0.71,0.26 -1.44,0.57 -2.19,0.92 v -0.17 a 37.63,37.63 0 0 1 4.4,-2 c 0.31,-0.07 0.57,-0.13 0.84,-0.21 z"
         id="path138" />
      <path
         d="m 870,432.73 h -0.06 c -0.08,-0.4 -0.21,-1.13 -0.37,-2.2 l 0.28,-0.16 c 0.03,0.84 0.08,1.63 0.15,2.36 z"
         id="path140" />
      <path
         d="m 870,433.13 v 0 l -0.08,-0.38 h 0.06 c 0.02,0.11 0.02,0.25 0.02,0.38 z"
         id="path142" />
      <path
         d="m 911.17,312.64 a 8.66,8.66 0 0 0 -1.5,0.52 31.27,31.27 0 0 1 3.05,-1.46 11.15,11.15 0 0 1 2.88,-0.49 29.6,29.6 0 0 0 -4.43,1.43 z"
         id="path144" />
      <path
         d="m 870.32,430.1 -0.49,0.29 c -0.06,-1.05 -0.11,-2.17 -0.16,-3.34 l 0.58,-0.59 c 0.02,1.26 0.04,2.47 0.07,3.64 z"
         id="path146" />
      <path
         d="m 870.39,432.49 -0.41,0.24 c -0.05,-0.75 -0.1,-1.52 -0.15,-2.34 l 0.49,-0.29 c 0.02,0.82 0.05,1.61 0.07,2.39 z"
         id="path148" />
      <path
         d="m 870.39,432.49 c 0,0.09 0,0.18 0,0.27 l -0.4,0.37 c 0,-0.14 0,-0.27 0,-0.4 z"
         id="path150" />
      <path
         d="m 878.59,424.87 -1,0.94 -7.32,4.29 c 0,-1.17 -0.05,-2.38 -0.07,-3.64 1.91,-2 6.22,-6.47 11.54,-12.51 -1.06,3.83 -2.13,7.48 -3.15,10.92 z"
         id="path152" />
      <path
         d="m 924.84,361 a 56.26,56.26 0 0 0 -3,6.93 c -0.3,0.84 -0.57,1.69 -0.81,2.54 q -1.62,3.48 -3.59,7 c -9.65,17.21 -28,36.66 -38.83,47.41 1,-3.44 2.09,-7.09 3.2,-10.92 9.19,-10.43 21.37,-25.38 29.33,-39.58 18.1,-32.28 14.06,-59.06 3.32,-61.58 a 4.93,4.93 0 0 0 -3.27,-0.15 29.6,29.6 0 0 1 4.43,-1.43 c 12.45,-0.43 18.68,22.37 9.22,49.78 z"
         id="path154" />
      <path
         d="m 924.84,361 a 96.83,96.83 0 0 1 -3.83,9.47 c 0.24,-0.85 0.51,-1.7 0.81,-2.54 a 56.26,56.26 0 0 1 3.02,-6.93 z"
         id="path156" />
      <path
         d="m 877.64,425.81 c -2.92,2.89 -5.19,5 -6.47,6.24 l -0.78,0.44 c 0,-0.78 0,-1.57 -0.07,-2.39 z"
         id="path158" />
      <path
         d="m 870.4,432.76 c 0,-0.09 0,-0.18 0,-0.27 l 0.78,-0.44 z"
         id="path160" />
      <path
         class="b"
         d="m 897.19,321.68 c -0.45,0.47 -0.89,0.95 -1.33,1.45 0.44,-0.51 0.89,-0.99 1.33,-1.45 z"
         id="path162" />
      <path
         class="b"
         d="m 875.18,368 v 0 c 0.34,-1.28 0.69,-2.59 1.06,-3.91 0.23,-0.79 0.45,-1.56 0.68,-2.33 -0.23,0.86 -0.45,1.72 -0.67,2.59 -0.35,1.23 -0.71,2.44 -1.07,3.65 z"
         id="path164" />
      <path
         class="b"
         d="m 882.45,346.2 c -0.53,1.2 -1.05,2.41 -1.55,3.65 3.7,-9.82 7.67,-17.14 11.64,-22.59 A 82.12,82.12 0 0 0 884,342.83 c -0.55,1.1 -1,2.22 -1.55,3.37 z"
         id="path166" />
      <path
         class="b"
         d="m 894.67,324.51 c -0.53,0.65 -1.06,1.3 -1.57,2 0.52,-0.7 1.05,-1.36 1.57,-2 z"
         id="path168" />
      <path
         class="b"
         d="m 868.47,412.34 c 0,-0.67 0,-1.36 0.06,-2.07 0,2.74 -0.08,5.49 0,8.24 -0.07,-2.06 -0.08,-4.11 -0.06,-6.17 z"
         id="path170" />
      <path
         class="b"
         d="m 899.79,319.19 c -0.51,0.45 -1,0.92 -1.52,1.4 0.51,-0.49 1.02,-0.96 1.52,-1.4 z"
         id="path172" />
      <path
         class="b"
         d="m 902,317.41 c -0.28,0.21 -0.56,0.42 -0.84,0.65 0.27,-0.23 0.55,-0.45 0.84,-0.65 z"
         id="path174" />
      <path
         class="b"
         d="m 869.18,427.55 v 0 a 67.14,67.14 0 0 1 -0.69,-8.4 c 0,-0.1 0,-0.21 0,-0.32 l 0.16,-0.13 c 0.07,3.62 0.29,6.58 0.53,8.85 z"
         id="path176" />
      <path
         class="b"
         d="m 876.43,363.83 -0.18,0.56 c 0.22,-0.87 0.44,-1.73 0.67,-2.59 q 1.92,-6.51 4,-11.95 c 0.5,-1.24 1,-2.45 1.55,-3.65 a 138.68,138.68 0 0 0 -6.04,17.63 z"
         id="path178" />
      <path
         class="b"
         d="m 882.45,346.2 c 0.5,-1.15 1,-2.27 1.51,-3.37 l -0.42,1 c -0.37,0.78 -0.73,1.58 -1.09,2.37 z"
         id="path180" />
      <path
         class="b"
         d="m 881.76,348.29 c -1.8,4.59 -3.58,9.75 -5.33,15.54 a 138.68,138.68 0 0 1 6,-17.63 c 0.36,-0.79 0.72,-1.59 1.09,-2.36 -0.58,1.43 -1.18,2.91 -1.76,4.45 z"
         id="path182" />
      <path
         class="b"
         d="m 869.5,418 c 0,3.31 0.06,6.35 0.17,9.07 l -0.49,0.5 c -0.24,-2.27 -0.46,-5.23 -0.53,-8.84 z"
         id="path184" />
      <path
         class="b"
         d="m 907.45,314.25 c -8.29,4.35 -15.39,11.7 -22,25.46 -0.51,1 -1,2.05 -1.51,3.12 a 82.12,82.12 0 0 1 8.58,-15.57 l 0.56,-0.76 c 0.51,-0.69 1,-1.34 1.57,-2 0.4,-0.48 0.79,-0.94 1.19,-1.38 0.4,-0.44 0.88,-1 1.33,-1.45 0.45,-0.45 0.72,-0.74 1.08,-1.09 0.36,-0.35 1,-0.95 1.52,-1.4 0.52,-0.45 0.91,-0.77 1.36,-1.13 0.28,-0.23 0.56,-0.44 0.84,-0.65 a 31,31 0 0 1 5.49,-3.33 z"
         id="path186" />
      <path
         class="b"
         d="m 907.48,314.08 c 0.75,-0.35 1.48,-0.66 2.19,-0.92 -0.75,0.34 -1.49,0.7 -2.22,1.09 z"
         id="path188" />
      <path
         class="b"
         d="m 883.54,343.84 0.42,-1 c 0.49,-1.07 1,-2.11 1.51,-3.12 -0.52,1.08 -1,2.18 -1.54,3.34 z"
         id="path190" />
      <path
         class="b"
         d="m 870.25,426.46 -0.58,0.59 c -0.11,-2.72 -0.18,-5.76 -0.17,-9.07 l 0.75,-0.68 c -0.05,3.24 -0.04,6.3 0,9.16 z"
         id="path192" />
      <path
         class="b"
         d="m 883.54,343.84 0.39,-0.79 q -1.09,2.49 -2.17,5.24 c 0.58,-1.54 1.18,-3.02 1.78,-4.45 z"
         id="path194" />
      <path
         class="b"
         d="m 885.35,401.63 c -1.22,4.25 -2.41,8.37 -3.56,12.32 -5.32,6 -9.63,10.55 -11.54,12.51 0,-2.86 0,-5.92 0,-9.16 a 163.14,163.14 0 0 0 15.1,-15.67 z"
         id="path196" />
      <path
         class="b"
         d="m 903.5,374.62 c 16.06,-32 18.66,-58.52 10.94,-61.83 10.74,2.52 14.78,29.3 -3.32,61.58 -8,14.2 -20.14,29.15 -29.33,39.58 1.15,-3.95 2.34,-8.07 3.56,-12.32 a 140.32,140.32 0 0 0 18.15,-27.01 z"
         id="path198" />
      <path
         d="m 869,397 a 193.43,193.43 0 0 1 6.18,-29 195,195 0 0 0 -6.65,42.23 c 0.07,-4.39 0.21,-8.82 0.47,-13.23 z"
         id="path200" />
      <path
         d="M 868.49,418.85 Z"
         id="path202" />
      <polygon
         points=""
         id="polygon204" />
      <path
         d="m 910.57,312.9 a 8.21,8.21 0 0 0 -0.9,0.26 v 0 a 8.66,8.66 0 0 1 1.5,-0.52 z"
         id="path206" />
      <path
         d="m 914.44,312.79 a 7.85,7.85 0 0 0 -3.87,0.11 l 0.6,-0.26 a 4.93,4.93 0 0 1 3.27,0.15 z"
         id="path208" />
      <path
         d="m 876.25,364.39 c 0,0.15 -0.07,0.3 -0.1,0.45 -0.03,0.15 0,0.18 -0.08,0.27 q -1.49,5.63 -2.57,11.14 c -4.2,18.41 -5,32.78 -4.85,42.46 l -0.16,0.13 v -0.33 c 0,-2.75 0,-5.5 0,-8.24 A 195,195 0 0 1 875.18,368 v 0 c 0.36,-1.21 0.72,-2.42 1.07,-3.61 z"
         id="path210" />
      <path
         d="m 876.25,364.39 0.18,-0.56 c -0.1,0.34 -0.19,0.67 -0.28,1 0.03,-0.14 0.07,-0.29 0.1,-0.44 z"
         id="path212" />
      <path
         d="m 875,370 v 0.05 c -0.54,2.11 -1,4.16 -1.49,6.18 q 1.1,-5.5 2.57,-11.14 c 0,-0.09 0,-0.18 0.08,-0.27 -0.16,0.67 -0.33,1.32 -0.48,2 q -0.35,1.61 -0.68,3.18 z"
         id="path214" />
      <path
         d="m 875,370 q 0.32,-1.59 0.66,-3.18 c 0.15,-0.68 0.32,-1.33 0.48,-2 0.09,-0.34 0.18,-0.67 0.28,-1 1.75,-5.79 3.53,-10.95 5.33,-15.54 A 204.81,204.81 0 0 0 875,370 Z"
         id="path216" />
      <path
         d="m 868.65,418.71 c -0.19,-9.68 0.65,-24 4.85,-42.46 a 216.83,216.83 0 0 0 -4,41.73 z"
         id="path218" />
      <path
         d="m 885.47,339.71 c 6.59,-13.76 13.69,-21.11 22,-25.46 v 0.22 c -7.84,4.37 -15.53,12.53 -22,25.24 z"
         id="path220" />
      <path
         d="m 908.1,314.09 -0.69,0.38 v -0.22 c 0.73,-0.39 1.47,-0.75 2.22,-1.09 v 0 c -0.48,0.29 -1.01,0.6 -1.53,0.93 z"
         id="path222" />
      <path
         d="m 909.67,313.16 a 8.21,8.21 0 0 1 0.9,-0.26 c -0.82,0.35 -1.65,0.75 -2.47,1.19 0.52,-0.33 1.05,-0.64 1.57,-0.93 z"
         id="path224" />
      <path
         d="m 875,370 a 262,262 0 0 0 -4.76,47.28 l -0.75,0.68 a 216.83,216.83 0 0 1 4,-41.73 c 0.46,-2 1,-4.07 1.49,-6.18 z"
         id="path226" />
      <path
         d="m 907.41,314.47 v 0 c -8.58,5.51 -17.07,15.48 -23.47,28.53 0.51,-1.16 1,-2.26 1.54,-3.34 6.46,-12.66 14.15,-20.82 21.93,-25.19 z"
         id="path228" />
      <path
         d="m 907.41,314.47 0.69,-0.38 -0.7,0.43 z"
         id="path230" />
      <path
         d="M 870.25,417.3 A 262,262 0 0 1 875,370 a 204.81,204.81 0 0 1 6.75,-21.73 q 1.08,-2.75 2.17,-5.24 c 6.4,-13.05 14.89,-23 23.47,-28.53 -4.16,22.52 -13.67,57.78 -22,87.11 a 163.14,163.14 0 0 1 -15.14,15.69 z"
         id="path232" />
      <path
         d="m 914.44,312.79 c 7.72,3.31 5.12,29.81 -10.94,61.83 a 140.32,140.32 0 0 1 -18.15,27 c 8.38,-29.33 17.89,-64.59 22,-87.11 l 0.7,-0.43 c 0.82,-0.44 1.65,-0.84 2.47,-1.19 a 7.85,7.85 0 0 1 3.92,-0.1 z"
         id="path234" />
      <path
         class="h"
         d="m 977.88,278.21 c 8.69,4.61 24.13,15.48 27.44,28.17 a 0.18,0.18 0 0 1 -0.29,0.18 c -10.39,-8.51 -17.61,-12.95 -25.79,-15.19 a 40.16,40.16 0 0 0 -5.86,-1.46 36.84,36.84 0 0 0 4.5,-11.7 z m 4.81,6.09 0.4,-0.22 -0.18,-0.35 a 2.26,2.26 0 0 0 -3.09,-1 l -0.34,0.18 0.21,0.41 a 2.19,2.19 0 0 0 3,0.98 z"
         id="path236" />
      <path
         class="h"
         d="m 964.28,289.35 c 5.8,-1.7 10.41,-6.21 13.54,-11.18 h 0.06 a 36.84,36.84 0 0 1 -4.5,11.7 45.69,45.69 0 0 0 -9.1,-0.52 z"
         id="path238" />
      <path
         class="i"
         d="m 979.24,291.37 c 8.62,2.83 15.14,8.31 21,14.44 -10.15,-4.64 -24.51,-9.19 -32.58,-8.39 a 40.3,40.3 0 0 0 5.55,-7.3 49.94,49.94 0 0 1 6.03,1.25 z"
         id="path240" />
      <path
         class="i"
         d="m 964.28,289.35 a 81.17,81.17 0 0 1 9,0.77 40.3,40.3 0 0 1 -5.55,7.3 h -0.21 c -0.6,-5.35 0.69,-3.99 -3.24,-8.07 z"
         id="path242" />
      <path
         class="i"
         d="m 973.38,289.91 a 40.16,40.16 0 0 1 5.86,1.46 49.94,49.94 0 0 0 -6,-1.25 2.39,2.39 0 0 0 0.14,-0.21 z"
         id="path244" />
      <path
         class="i"
         d="m 973.38,289.91 a 2.39,2.39 0 0 1 -0.13,0.21 81.17,81.17 0 0 0 -9,-0.77 45.69,45.69 0 0 1 9.13,0.56 z"
         id="path246" />
      <path
         class="b"
         d="m 943.23,276.94 -9,-8.23 10.77,-6.94 a 13.57,13.57 0 0 1 19.37,2.38 l 8.3,8.07 a 1.51,1.51 0 0 1 -0.39,2.43 l -9.69,4.67 a 13.57,13.57 0 0 1 -19.36,-2.38 z m 3.11,-3.83 a 7.77,7.77 0 0 0 9.83,5.15 8,8 0 0 0 5,-10.07 7.77,7.77 0 0 0 -9.83,-5.15 8,8 0 0 0 -5,10.07 z"
         id="path248" />
      <path
         class="j"
         d="m 951.37,263 a 7.77,7.77 0 0 1 9.83,5.15 8,8 0 0 1 -5,10.07 7.77,7.77 0 0 1 -9.83,-5.15 8,8 0 0 1 5,-10.07 z m -3,9.4 a 5.65,5.65 0 0 0 7.15,3.75 5.85,5.85 0 0 0 3.65,-7.33 5.65,5.65 0 0 0 -7.15,-3.75 5.85,5.85 0 0 0 -3.65,7.37 z"
         id="path250" />
      <path
         d="m 952,265.11 a 5.65,5.65 0 0 1 7.15,3.75 5.85,5.85 0 0 1 -3.65,7.33 5.65,5.65 0 0 1 -7.15,-3.75 5.85,5.85 0 0 1 3.65,-7.33 z m -2.07,3.89 a 2,2 0 0 0 2.56,1.34 2.09,2.09 0 0 0 1.3,-2.62 2,2 0 0 0 -2.55,-1.34 2.09,2.09 0 0 0 -1.31,2.62 z"
         id="path252" />
      <ellipse
         class="k"
         cx="951.85999"
         cy="268.39001"
         rx="2.03"
         ry="2.0799999"
         id="ellipse254" />
      <path
         d="m 897.3,466.19 h 14.16 a 15.52,15.52 0 0 1 2.07,4.16 h -24.34 c 0,0 2.52,-8.45 10.85,-9.28 v 0.2 a 15.68,15.68 0 0 0 -2.74,4.92 z"
         id="path256" />
      <path
         d="m 900.07,461.27 c 0.2,1 0.39,2.06 0.57,3 a 0.73,0.73 0 1 0 1.45,-0.15 c 0,-1 0,-2 0,-3.13 a 11.5,11.5 0 0 1 9.39,5.18 H 897.3 a 15.68,15.68 0 0 1 2.77,-4.9 z"
         id="path258" />
      <path
         d="m 902.05,459.34 a 13.32,13.32 0 0 0 -1.79,1.71 h -0.22 c -1.11,-6 -2.42,-13 -3.31,-17.77 q 2.61,-1.16 5.27,-2.41 c 0,4.36 0,11.87 0.05,18.47 z"
         id="path260" />
      <path
         d="m 901.36,461 c -0.38,0 -0.74,0 -1.1,0.07 a 13.32,13.32 0 0 1 1.79,-1.71 c 0,0.57 0,1.12 0,1.67 C 901.83,461 901.61,461 901.36,461 Z"
         id="path262" />
      <path
         d="m 902,439.85 c 0,0.32 0,0.67 0,1 q -2.65,1.26 -5.27,2.41 c -0.2,-1.09 -0.38,-2.08 -0.53,-2.88 0.02,-2.66 5.33,-3.14 5.8,-0.53 z"
         id="path264" />
      <path
         d="m 900.07,461.27 v -0.2 h 0.22 c -0.09,0.05 -0.16,0.12 -0.22,0.2 z"
         id="path266" />
      <path
         d="m 902.07,461 c 0,1.09 0,2.14 0,3.13 a 0.73,0.73 0 1 1 -1.45,0.15 c -0.18,-1 -0.37,-2 -0.57,-3 0.06,-0.08 0.13,-0.15 0.19,-0.22 0.36,0 0.72,-0.07 1.1,-0.07 0.38,0 0.49,0.01 0.73,0.01 z"
         id="path268" />
      <path
         class="b"
         d="m 979.82,282.76 a 2.26,2.26 0 0 1 3.09,1 l 0.18,0.35 -0.4,0.22 a 2.19,2.19 0 0 1 -3,-0.95 l -0.21,-0.41 z"
         id="path270" />
    </g>
  </g>
</svg>
