<?xml version="1.0" encoding="UTF-8" standalone="no"?>
<svg
   viewBox="0 0 537.23621 167.58233"
   version="1.1"
   id="svg69"
   sodipodi:docname="pyroll_banner.svg"
   width="142.14375mm"
   height="44.339497mm"
   inkscape:version="1.1.1 (3bf5ae0d25, 2021-09-20, custom)"
   xmlns:inkscape="http://www.inkscape.org/namespaces/inkscape"
   xmlns:sodipodi="http://sodipodi.sourceforge.net/DTD/sodipodi-0.dtd"
   xmlns="http://www.w3.org/2000/svg"
   xmlns:svg="http://www.w3.org/2000/svg">
  <sodipodi:namedview
     id="namedview71"
     pagecolor="#ffffff"
     bordercolor="#666666"
     borderopacity="1.0"
     inkscape:pageshadow="2"
     inkscape:pageopacity="0.0"
     inkscape:pagecheckerboard="0"
     showgrid="false"
     units="mm"
     height="40mm"
     inkscape:zoom="3.132311"
     inkscape:cx="289.56256"
     inkscape:cy="94.977798"
     inkscape:window-width="3840"
     inkscape:window-height="2091"
     inkscape:window-x="0"
     inkscape:window-y="0"
     inkscape:window-maximized="1"
     inkscape:current-layer="svg69"
     inkscape:document-units="mm"
     fit-margin-top="0"
     fit-margin-left="0"
     fit-margin-right="0"
     fit-margin-bottom="0" />
  <defs
     id="defs4">
    <rect
       x="7.0795851"
       y="9.8158188"
       width="621.88202"
       height="192.36075"
       id="rect6984" />
    <style
       id="style2">.d{fill:#d4691e;}.e,.f{fill:#fff;}.g{fill:#cfba00;}.h{fill:#ffe600;}.i{fill:#303030;}.j{fill:#fd0;}.k{fill:#4f4f4e;}.f{stroke:#fd0;stroke-miterlimit:10;}.l{fill:#d4851e;}.m{fill:#bd7100;}</style>
  </defs>
  <g
     id="a"
     transform="translate(-17.473789,-10.480792)" />
  <g
     id="b"
     transform="translate(432.5262,-4.8109957e-4)">
    <g
       id="c">
      <g
         id="g65">
        <g
           id="g11">
          <path
             class="i"
             d="m 51.57,135.98 c 0,0 1.65,-5.79 7.5,-5.63 5.79,0 7.5,5.63 7.5,5.63 z"
             id="path7" />
          <path
             class="i"
             d="m 58.62,132.25 c 0,0.6 0.78,0.68 0.89,0.09 0.89,-4.66 2.16,-11.37 2.73,-14.36 -0.02,-1.62 -3.28,-1.91 -3.58,-0.34 0.03,3.04 -0.01,9.88 -0.05,14.62 z"
             id="path9" />
        </g>
        <path
           class="j"
           d="M 59.76,41.46 C 59.14,37.66 59.25,32.54 58.41,24.86 57.02,12.11 51.89,4.24 47.45,2.4 35.4,-2.59 22.1,-0.04 17.67,12.34 13.49,24.04 21.1,36.4 32.8,40.58 c 0,0 -1.3,5.07 -2.23,6.19 -37.06,44.87 29.35,74.94 52.76,81.32 0,0 -19.5,-61.61 -23.56,-86.64 z"
           id="path13" />
        <path
           class="f"
           d="m 27.93,51.31 c 0,0 17.85,9.98 23.53,25.55 5.68,15.57 -5.9,33.13 -5.9,33.13 0,0 -15.43,-9 -22.49,-23.91 -9.46,-19.99 4.86,-34.77 4.86,-34.77 z"
           id="path15" />
        <g
           id="g29">
          <polygon
             points="67.19,117.32 73.99,109.01 104.71,126.57 97.29,142.22 "
             id="polygon17" />
          <polygon
             class="i"
             points="67.62,116.8 68.65,115.53 100.03,136.23 98.88,138.87 "
             id="polygon19" />
          <polygon
             class="i"
             points="69.67,114.29 70.86,112.83 102.48,131.27 101.2,133.96 "
             id="polygon21" />
          <polygon
             class="i"
             points="71.87,111.6 73.09,110.11 104.28,127.46 103.23,129.68 "
             id="polygon23" />
          <polygon
             class="g"
             points="86.53,133.32 87.91,131.16 98.88,138.87 97.29,142.22 "
             id="polygon25" />
          <polygon
             class="h"
             points="89.61,135.87 91.17,133.45 98.88,138.87 97.29,142.22 "
             id="polygon27" />
        </g>
        <g
           id="g41">
          <path
             class="k"
             d="M 42.72,83.64 C 30.03,61.55 37.08,46.61 47.79,42.52 c 10.7,-4.09 26.97,10.87 32.11,33.7 5.47,24.29 2.62,49.31 2.62,49.31 0,0 -31.03,-26.62 -39.8,-41.89 z"
             id="path31" />
          <path
             class="i"
             d="M 48.61,83.57 C 35.92,61.48 42.32,40.9 53.68,42.45 c 9.46,1.29 20.03,10.76 25.97,32.73 6.51,24.03 3.23,46.03 3.23,46.03 0,0 -25.5,-22.37 -34.27,-37.64 z"
             id="path33" />
          <path
             d="m 54.17,82.6 c -12.69,-22.09 -7.4,-43.27 3.39,-39.41 10.34,3.69 17.21,13.93 22.75,34.97 6.36,24.15 3.08,37.93 3.08,37.93 0,0 -20.45,-18.22 -29.22,-33.49 z"
             id="path35" />
          <path
             class="i"
             d="M 84.34,103.59 C 84.19,97.03 83.17,87.15 79.55,74.59 73.34,53.06 65.02,46.1 58.95,43.93 50.34,40.85 45.37,58.66 58.06,80.75 c 8.77,15.27 25.85,31.99 25.85,31.99 0,0 0.31,-1.75 0.42,-5.05 0.02,-1.37 0.03,-2.74 0.02,-4.1 z"
             id="path37" />
          <path
             d="M 83.99,94.35 C 83.39,89.75 82.26,83.94 80.2,76.93 73.96,55.72 67.47,47.69 58.94,43.92 c -8.01,-3.54 -7.77,14.46 3.81,36.97 7.98,15.53 21.51,26.55 21.57,26.6 0.07,-4.39 -0.04,-8.77 -0.33,-13.15 z"
             id="path39" />
        </g>
        <path
           class="d"
           d="M 25.29,29.6 C 15.32,29.96 10.09,32.03 0.18,39.96 0.1,40.02 -0.03,39.96 0,39.85 2.05,32.2 11.6,25.64 16.95,22.88 c 1.93,2.99 4.77,5.7 8.34,6.72 z"
           id="path43" />
        <path
           class="l"
           d="M 25.29,29.6 C 14.93,29.25 8.59,33.94 3.11,39.51 9.42,36.7 18.36,33.93 23.32,34.47 23.67,31.24 22.88,32.06 25.3,29.6 Z"
           id="path45" />
        <g
           id="g55">
          <path
             class="i"
             d="M 20.35,20.76 C 19.78,20.49 19.66,19.73 20.11,19.3 l 5.11,-4.86 c 2.9,-3.69 8.24,-4.33 11.94,-1.43 l 6.64,4.18 -5.54,4.95 c -2.9,3.69 -8.24,4.33 -11.94,1.43 z"
             id="path47" />
          <circle
             class="m"
             cx="31.77"
             cy="18.35"
             r="4.8099999"
             id="circle49" />
          <circle
             cx="31.77"
             cy="18.35"
             r="3.5"
             id="circle51" />
          <circle
             class="e"
             cx="32.950001"
             cy="16.99"
             r="1.25"
             id="circle53" />
        </g>
        <g
           id="g61">
          <path
             d="m 56.57,138.48 c 0,0 1.65,-5.79 7.5,-5.63 5.79,0 7.5,5.63 7.5,5.63 z"
             id="path57" />
          <path
             d="m 63.62,134.75 c 0,0.6 0.78,0.68 0.89,0.09 0.89,-4.66 2.16,-11.37 2.73,-14.36 -0.02,-1.62 -3.28,-1.91 -3.58,-0.34 0.03,3.04 -0.01,9.88 -0.05,14.62 z"
             id="path59" />
        </g>
        <path
           class="i"
           d="m 13.99,25.26 h 0.24 c 0.78,0 1.41,0.63 1.41,1.41 v 0.24 h -0.28 c -0.76,0 -1.37,-0.61 -1.37,-1.37 z"
           transform="rotate(27.9,14.815201,26.089307)"
           id="path63" />
      </g>
    </g>
  </g>
  <text
     xml:space="preserve"
     id="text6982"
     style="font-style:normal;font-variant:normal;font-weight:normal;font-stretch:normal;font-size:120.945px;line-height:1.25;font-family:'Noto Mono';-inkscape-font-specification:'Noto Mono';white-space:pre;shape-inside:url(#rect6984)"
     transform="translate(-17.473789,17.844532)"><tspan
       x="7.0800781"
       y="120.68266"
       id="tspan897">PyRoll</tspan></text>
</svg>
